<svg width="332" height="58" viewBox="0 0 332 58" fill="none" xmlns="http://www.w3.org/2000/svg" role="img" aria-labelledby="title desc">
  <title id="title">RelayClarity logo</title>
  <desc id="desc">RelayClarity wordmark with a precise routing and signal mark.</desc>
  <defs>
    <linearGradient id="tile" x1="5" y1="5" x2="53" y2="53" gradientUnits="userSpaceOnUse">
      <stop stop-color="#111827"/>
      <stop offset="1" stop-color="#030712"/>
    </linearGradient>
    <linearGradient id="signal" x1="15" y1="15" x2="43" y2="43" gradientUnits="userSpaceOnUse">
      <stop stop-color="#2DD4BF"/>
      <stop offset="0.54" stop-color="#2563EB"/>
      <stop offset="1" stop-color="#38BDF8"/>
    </linearGradient>
    <linearGradient id="wordMark" x1="143" y1="13" x2="232" y2="41" gradientUnits="userSpaceOnUse">
      <stop stop-color="#2563EB"/>
      <stop offset="1" stop-color="#0F766E"/>
    </linearGradient>
    <filter id="softShadow" x="0" y="0" width="60" height="60" filterUnits="userSpaceOnUse" color-interpolation-filters="sRGB">
      <feFlood flood-opacity="0" result="BackgroundImageFix"/>
      <feColorMatrix in="SourceAlpha" type="matrix" values="0 0 0 0 0 0 0 0 0 0 0 0 0 0 0 0 0 0 127 0" result="hardAlpha"/>
      <feOffset dy="3"/>
      <feGaussianBlur stdDeviation="3"/>
      <feColorMatrix type="matrix" values="0 0 0 0 0.0588235 0 0 0 0 0.0901961 0 0 0 0 0.164706 0 0 0 0.2 0"/>
      <feBlend mode="normal" in2="BackgroundImageFix" result="effect1_dropShadow"/>
      <feBlend mode="normal" in="SourceGraphic" in2="effect1_dropShadow" result="shape"/>
    </filter>
  </defs>

  <g filter="url(#softShadow)">
    <rect x="5" y="5" width="48" height="48" rx="12" fill="url(#tile)"/>
    <rect x="5.75" y="5.75" width="46.5" height="46.5" rx="11.25" stroke="#243244" stroke-width="1.5"/>
    <path d="M17 21.5H29.2C35.8 21.5 40.2 25.1 40.2 30.2C40.2 35.4 35.8 39 29.2 39H24.1L18.8 43.1C18 43.7 16.8 43.1 16.8 42.1V38.1C14.3 36.4 12.8 33.7 12.8 30.2C12.8 26.7 14.4 24 17 21.5Z" fill="white"/>
    <path d="M19.4 29H28.5C30.5 29 31.9 27.8 31.9 26.2C31.9 24.5 30.5 23.4 28.5 23.4H20.7" stroke="#030712" stroke-width="2.6" stroke-linecap="round"/>
    <path d="M20.4 33.2H29.7C31.8 33.2 33.3 34.5 33.3 36.2" stroke="#030712" stroke-width="2.6" stroke-linecap="round"/>
    <path d="M37.8 18.2C40.4 20.3 41.9 23.2 41.9 26.6C41.9 30 40.4 32.9 37.8 35" stroke="url(#signal)" stroke-width="3" stroke-linecap="round"/>
    <path d="M42.5 14.3C46.1 17.3 48.1 21.5 48.1 26.6C48.1 31.7 46.1 35.9 42.5 38.9" stroke="url(#signal)" stroke-width="2.6" stroke-linecap="round" opacity="0.92"/>
    <circle cx="37" cy="26.6" r="2.35" fill="#2DD4BF"/>
  </g>

  <text x="66" y="29" fill="#111827" font-family="Inter, ui-sans-serif, system-ui, -apple-system, BlinkMacSystemFont, 'Segoe UI', sans-serif" font-size="25" font-weight="850">Relay</text>
  <text x="137" y="29" fill="url(#wordMark)" font-family="Inter, ui-sans-serif, system-ui, -apple-system, BlinkMacSystemFont, 'Segoe UI', sans-serif" font-size="25" font-weight="900">Clarity</text>
  <text x="67" y="44" fill="#64748B" font-family="Inter, ui-sans-serif, system-ui, -apple-system, BlinkMacSystemFont, 'Segoe UI', sans-serif" font-size="10.5" font-weight="760">Voice agent deployment platform</text>
</svg>
