<svg width="300" height="58" viewBox="0 0 300 58" fill="none" xmlns="http://www.w3.org/2000/svg" role="img" aria-labelledby="title desc">
  <title id="title">ChatoraAI logo</title>
  <desc id="desc">ChatoraAI wordmark with a polished conversation and voice signal symbol.</desc>
  <defs>
    <linearGradient id="tile" x1="5" y1="5" x2="53" y2="53" gradientUnits="userSpaceOnUse">
      <stop stop-color="#111C34"/>
      <stop offset="1" stop-color="#071124"/>
    </linearGradient>
    <linearGradient id="signal" x1="15" y1="17" x2="44" y2="41" gradientUnits="userSpaceOnUse">
      <stop stop-color="#39D6EA"/>
      <stop offset="0.5" stop-color="#0B5CFF"/>
      <stop offset="1" stop-color="#6EE7F9"/>
    </linearGradient>
    <linearGradient id="wordAi" x1="164" y1="13" x2="194" y2="37" gradientUnits="userSpaceOnUse">
      <stop stop-color="#0B5CFF"/>
      <stop offset="1" stop-color="#06B6D4"/>
    </linearGradient>
    <filter id="softShadow" x="0" y="0" width="60" height="60" filterUnits="userSpaceOnUse" color-interpolation-filters="sRGB">
      <feFlood flood-opacity="0" result="BackgroundImageFix"/>
      <feColorMatrix in="SourceAlpha" type="matrix" values="0 0 0 0 0 0 0 0 0 0 0 0 0 0 0 0 0 0 127 0" result="hardAlpha"/>
      <feOffset dy="3"/>
      <feGaussianBlur stdDeviation="3"/>
      <feColorMatrix type="matrix" values="0 0 0 0 0.0588235 0 0 0 0 0.0901961 0 0 0 0 0.164706 0 0 0 0.22 0"/>
      <feBlend mode="normal" in2="BackgroundImageFix" result="effect1_dropShadow"/>
      <feBlend mode="normal" in="SourceGraphic" in2="effect1_dropShadow" result="shape"/>
    </filter>
  </defs>

  <g filter="url(#softShadow)">
    <rect x="5" y="5" width="48" height="48" rx="14" fill="url(#tile)"/>
    <rect x="5.75" y="5.75" width="46.5" height="46.5" rx="13.25" stroke="#263650" stroke-width="1.5"/>
    <path d="M17.2 31.8C15.4 30.2 14.5 28.1 14.5 25.6C14.5 20.6 18.5 17 24.1 17H29.8C35.4 17 39.4 20.6 39.4 25.6C39.4 30.6 35.4 34.2 29.8 34.2H26.3L20.7 38.2C19.9 38.8 18.8 38.2 18.8 37.2V33.1C18.2 32.8 17.7 32.3 17.2 31.8Z" fill="white"/>
    <path d="M21.8 25.7C21.8 22.8 24 20.7 27.1 20.7C28.9 20.7 30.3 21.3 31.3 22.5L29.3 24.4C28.8 23.8 28.1 23.5 27.2 23.5C25.6 23.5 24.5 24.5 24.5 25.7C24.5 26.9 25.6 27.9 27.2 27.9C28.1 27.9 28.8 27.6 29.3 27L31.3 28.9C30.3 30.1 28.9 30.7 27.1 30.7C24 30.7 21.8 28.6 21.8 25.7Z" fill="#071124"/>
    <path d="M38.1 18.2C40.5 20 41.9 22.6 41.9 25.7C41.9 28.8 40.5 31.4 38.1 33.2" stroke="url(#signal)" stroke-width="3" stroke-linecap="round"/>
    <path d="M42.5 14.2C46.1 17 48.1 21 48.1 25.7C48.1 30.4 46.1 34.4 42.5 37.2" stroke="url(#signal)" stroke-width="2.6" stroke-linecap="round" opacity="0.9"/>
    <circle cx="37.8" cy="25.7" r="2.3" fill="#06B6D4"/>
  </g>

  <text x="66" y="29" fill="#0F172A" font-family="Inter, ui-sans-serif, system-ui, -apple-system, BlinkMacSystemFont, 'Segoe UI', sans-serif" font-size="25" font-weight="850">Chatora</text>
  <text x="164" y="29" fill="url(#wordAi)" font-family="Inter, ui-sans-serif, system-ui, -apple-system, BlinkMacSystemFont, 'Segoe UI', sans-serif" font-size="25" font-weight="900">AI</text>
  <text x="67" y="44" fill="#64748B" font-family="Inter, ui-sans-serif, system-ui, -apple-system, BlinkMacSystemFont, 'Segoe UI', sans-serif" font-size="10.5" font-weight="760">Voice agent deployment platform</text>
</svg>
