<svg width="300" height="52" viewBox="0 0 300 52" fill="none" xmlns="http://www.w3.org/2000/svg" role="img" aria-labelledby="title desc">
  <title id="title">ChatoraAi logo</title>
  <desc id="desc">A ChatoraAi wordmark with a conversation and voice signal mark.</desc>
  <rect x="1" y="1" width="50" height="50" rx="15" fill="#0F172A"/>
  <rect x="1" y="1" width="50" height="50" rx="15" stroke="#1E293B" stroke-width="2"/>
  <path d="M15.5 25.7C15.5 18.9 20.8 13.9 27.5 13.9C31.3 13.9 34.2 15.3 36.2 17.6L32.9 20.7C31.5 19.2 29.8 18.5 27.8 18.5C23.9 18.5 21.2 21.2 21.2 25.7C21.2 30.2 23.9 32.9 27.8 32.9C29.8 32.9 31.5 32.2 32.9 30.6L36.2 33.7C34.2 36.1 31.3 37.5 27.4 37.5C20.8 37.5 15.5 32.5 15.5 25.7Z" fill="white"/>
  <path d="M36.8 18.3C39.2 20.1 40.6 22.6 40.6 25.6C40.6 28.6 39.2 31.1 36.8 32.9" stroke="#06B6D4" stroke-width="3" stroke-linecap="round"/>
  <path d="M40.4 14.2C44.2 17 46.4 21 46.4 25.6C46.4 30.2 44.2 34.2 40.4 37" stroke="#0B5CFF" stroke-width="2.6" stroke-linecap="round"/>
  <text x="63" y="24" fill="#0F172A" font-family="Inter, ui-sans-serif, system-ui, -apple-system, BlinkMacSystemFont, 'Segoe UI', sans-serif" font-size="24" font-weight="820" letter-spacing="-0.2">Chatora</text>
  <text x="157" y="24" fill="#0B5CFF" font-family="Inter, ui-sans-serif, system-ui, -apple-system, BlinkMacSystemFont, 'Segoe UI', sans-serif" font-size="24" font-weight="820" letter-spacing="-0.2">Ai</text>
  <text x="64" y="41" fill="#64748B" font-family="Inter, ui-sans-serif, system-ui, -apple-system, BlinkMacSystemFont, 'Segoe UI', sans-serif" font-size="11" font-weight="720" letter-spacing="0.1">Voice agent deployment platform</text>
</svg>
